{
  "accessors": [
    {
      "bufferView": 2,
      "componentType": 5126,
      "count": 104,
      "max": [
        -530.822021484375,
        240.73899841308594,
        387.47900390625
      ],
      "min": [
        -540.7860107421875,
        -118.0250015258789,
        75.75800323486328
      ],
      "type": "VEC3"
    },
    {
      "bufferView": 2,
      "byteOffset": 1248,
      "componentType": 5126,
      "count": 104,
      "max": [
        0.5013195276260376,
        0.9986933469772339,
        0.9368066787719727
      ],
      "min": [
        -0.5956984162330627,
        -0.9986933469772339,
        -0.947432279586792
      ],
      "type": "VEC3"
    },
    {
      "bufferView": 1,
      "componentType": 5126,
      "count": 104,
      "max": [
        0.9901999831199646,
        0.8035699725151062
      ],
      "min": [
        0.009800000116229057,
        0.1964299976825714
      ],
      "type": "VEC2"
    },
    {
      "bufferView": 0,
      "componentType": 5125,
      "count": 144,
      "type": "SCALAR"
    },
    {
      "bufferView": 2,
      "byteOffset": 2496,
      "componentType": 5126,
      "count": 644,
      "max": [
        245.95199584960938,
        162.1009979248047,
        234.625
      ],
      "min": [
        118.46600341796875,
        -39.387001037597656,
        124.85199737548828
      ],
      "type": "VEC3"
    },
    {
      "bufferView": 2,
      "byteOffset": 10224,
      "componentType": 5126,
      "count": 644,
      "max": [
        0.6827097535133362,
        0.7307977676391602,
        0.6827304363250732
      ],
      "min": [
        -0.6827097535133362,
        -1.0,
        -0.6827304363250732
      ],
      "type": "VEC3"
    },
    {
      "bufferView": 1,
      "byteOffset": 832,
      "componentType": 5126,
      "count": 644,
      "max": [
        0.8101599812507629,
        0.9901999831199646
      ],
      "min": [
        0.18984000384807587,
        0.009800000116229057
      ],
      "type": "VEC2"
    },
    {
      "bufferView": 0,
      "byteOffset": 576,
      "componentType": 5125,
      "count": 1926,
      "type": "SCALAR"
    },
    {
      "bufferView": 2,
      "byteOffset": 17952,
      "componentType": 5126,
      "count": 72,
      "max": [
        10.687000274658203,
        179.35899353027344,
        282.53900146484375
      ],
      "min": [
        -337.9519958496094,
        -56.645999908447266,
        64.13600158691406
      ],
      "type": "VEC3"
    },
    {
      "bufferView": 2,
      "byteOffset": 18816,
      "componentType": 5126,
      "count": 72,
      "max": [
        0.0,
        0.9848092794418335,
        0.9396923184394836
      ],
      "min": [
        0.0,
        -0.9848092794418335,
        -1.0
      ],
      "type": "VEC3"
    },
    {
      "bufferView": 3,
      "componentType": 5126,
      "count": 72,
      "max": [
        1.0,
        0.0,
        0.0,
        1.0
      ],
      "min": [
        -1.0,
        0.0,
        0.0,
        1.0
      ],
      "type": "VEC4"
    },
    {
      "bufferView": 1,
      "byteOffset": 5984,
      "componentType": 5126,
      "count": 72,
      "max": [
        0.9901999831199646,
        0.8318300247192383
      ],
      "min": [
        0.009800000116229057,
        0.1681700050830841
      ],
      "type": "VEC2"
    },
    {
      "bufferView": 0,
      "byteOffset": 8280,
      "componentType": 5125,
      "count": 108,
      "type": "SCALAR"
    },
    {
      "bufferView": 2,
      "byteOffset": 19680,
      "componentType": 5126,
      "count": 143,
      "max": [
        203.32200622558594,
        215.97500610351563,
        289.2460021972656
      ],
      "min": [
        -370.18701171875,
        -47.483001708984375,
        71.44599914550781
      ],
      "type": "VEC3"
    },
    {
      "bufferView": 2,
      "byteOffset": 21396,
      "componentType": 5126,
      "count": 143,
      "max": [
        0.0,
        1.0,
        0.0
      ],
      "min": [
        -1.0,
        -0.0,
        0.0
      ],
      "type": "VEC3"
    },
    {
      "bufferView": 1,
      "byteOffset": 6560,
      "componentType": 5126,
      "count": 143,
      "max": [
        0.7316200137138367,
        0.5813800096511841
      ],
      "min": [
        0.3158099949359894,
        0.2073100060224533
      ],
      "type": "VEC2"
    },
    {
      "bufferView": 0,
      "byteOffset": 8712,
      "componentType": 5125,
      "count": 312,
      "type": "SCALAR"
    },
    {
      "bufferView": 2,
      "byteOffset": 23112,
      "componentType": 5126,
      "count": 336,
      "max": [
        540.7860107421875,
        102.13400268554688,
        179.73800659179688
      ],
      "min": [
        282.89599609375,
        20.579999923706055,
        0.0
      ],
      "type": "VEC3"
    },
    {
      "bufferView": 2,
      "byteOffset": 27144,
      "componentType": 5126,
      "count": 336,
      "max": [
        0.9873232841491699,
        1.0,
        0.9237863421440125
      ],
      "min": [
        -0.9623456597328186,
        -1.0,
        -0.9679324626922607
      ],
      "type": "VEC3"
    },
    {
      "bufferView": 1,
      "byteOffset": 7704,
      "componentType": 5126,
      "count": 336,
      "max": [
        0.9901999831199646,
        0.8416500091552734
      ],
      "min": [
        0.011250000447034836,
        0.15835000574588776
      ],
      "type": "VEC2"
    },
    {
      "bufferView": 0,
      "byteOffset": 9960,
      "componentType": 5125,
      "count": 978,
      "type": "SCALAR"
    },
    {
      "bufferView": 2,
      "byteOffset": 31176,
      "componentType": 5126,
      "count": 278,
      "max": [
        224.3939971923828,
        -122.99500274658203,
        213.06700134277344
      ],
      "min": [
        157.73800659179688,
        -298.46099853515625,
        146.41099548339844
      ],
      "type": "VEC3"
    },
    {
      "bufferView": 2,
      "byteOffset": 34512,
      "componentType": 5126,
      "count": 278,
      "max": [
        1.0,
        1.0,
        1.0
      ],
      "min": [
        -1.0,
        -1.0,
        -1.0
      ],
      "type": "VEC3"
    },
    {
      "bufferView": 3,
      "byteOffset": 1152,
      "componentType": 5126,
      "count": 278,
      "max": [
        1.0,
        1.5803714632056653e-05,
        1.0,
        1.0
      ],
      "min": [
        -1.0,
        -2.3459324438590556e-05,
        -1.0,
        1.0
      ],
      "type": "VEC4"
    },
    {
      "bufferView": 1,
      "byteOffset": 10392,
      "componentType": 5126,
      "count": 278,
      "max": [
        1.121999979019165,
        2.2541298866271973
      ],
      "min": [
        -0.25,
        -1.2541300058364868
      ],
      "type": "VEC2"
    },
    {
      "bufferView": 0,
      "byteOffset": 13872,
      "componentType": 5125,
      "count": 816,
      "type": "SCALAR"
    },
    {
      "bufferView": 2,
      "byteOffset": 37848,
      "componentType": 5126,
      "count": 7525,
      "max": [
        320.9320068359375,
        298.46099853515625,
        454.1310119628906
      ],
      "min": [
        -535.0490112304688,
        -175.7480010986328,
        34.66299819946289
      ],
      "type": "VEC3"
    },
    {
      "bufferView": 2,
      "byteOffset": 128148,
      "componentType": 5126,
      "count": 7525,
      "max": [
        1.0,
        1.0,
        1.0
      ],
      "min": [
        -1.0,
        -1.0,
        -1.0
      ],
      "type": "VEC3"
    },
    {
      "bufferView": 3,
      "byteOffset": 5600,
      "componentType": 5126,
      "count": 7525,
      "max": [
        1.0,
        1.0,
        0.9349420070648193,
        1.0
      ],
      "min": [
        -1.0,
        -1.0,
        -0.9723431468009949,
        -1.0
      ],
      "type": "VEC4"
    },
    {
      "bufferView": 1,
      "byteOffset": 12616,
      "componentType": 5126,
      "count": 7525,
      "max": [
        0.9901999831199646,
        0.9901999831199646
      ],
      "min": [
        0.009800000116229057,
        0.009800000116229057
      ],
      "type": "VEC2"
    },
    {
      "bufferView": 0,
      "byteOffset": 17136,
      "componentType": 5125,
      "count": 18039,
      "type": "SCALAR"
    }
  ],
  "asset": {
    "extras": {
      "author": "Pete_YT (https://sketchfab.com/Pete_YT)",
      "license": "CC-BY-4.0 (http://creativecommons.org/licenses/by/4.0/)",
      "source": "https://sketchfab.com/3d-models/gravity-gun-3b71195691b94c018ddd9a7cd5aa546e",
      "title": "Gravity Gun"
    },
    "generator": "Sketchfab-12.78.0",
    "version": "2.0"
  },
  "bufferViews": [
    {
      "buffer": 0,
      "byteLength": 89292,
      "name": "floatBufferViews",
      "target": 34963
    },
    {
      "buffer": 0,
      "byteLength": 72816,
      "byteOffset": 89292,
      "byteStride": 8,
      "name": "floatBufferViews",
      "target": 34962
    },
    {
      "buffer": 0,
      "byteLength": 218448,
      "byteOffset": 162108,
      "byteStride": 12,
      "name": "floatBufferViews",
      "target": 34962
    },
    {
      "buffer": 0,
      "byteLength": 126000,
      "byteOffset": 380556,
      "byteStride": 16,
      "name": "floatBufferViews",
      "target": 34962
    }
  ],
  "buffers": [
    {
      "byteLength": 506556,
      "uri": "scene.bin"
    }
  ],
  "extensionsUsed": [
    "KHR_texture_transform"
  ],
  "images": [
    {
      "uri": "textures/Copper_1e687663-f91d-41a1-925e-c20dffc9dbf8_metallicRoughness.png"
    },
    {
      "uri": "textures/Crystal_7e73f3c6-6782-470c-9468-121de00b7864_normal.jpeg"
    },
    {
      "uri": "textures/Leather_Wrap_220a1780-23fa-4de2-9c3f-64bea45767fe_baseColor.jpeg"
    },
    {
      "uri": "textures/Metal_22cd07fc-ea5b-4e78-bb6f-f4fd4b5882e5_baseColor.jpeg"
    },
    {
      "uri": "textures/Metal_22cd07fc-ea5b-4e78-bb6f-f4fd4b5882e5_normal.png"
    },
    {
      "uri": "textures/Rubber_18cd300e-a1e8-43ba-8df2-9347ffdff511_normal.png"
    }
  ],
  "materials": [
    {
      "doubleSided": true,
      "emissiveFactor": [
        1.0,
        0.6795424696330938,
        0.0
      ],
      "name": "Arabella_6cbf14c6-248b-4963-8843-d6acddfba6a2",
      "pbrMetallicRoughness": {
        "baseColorFactor": [
          1.0,
          0.6795424696330938,
          0.0,
          1.0
        ],
        "roughnessFactor": 0.0
      }
    },
    {
      "doubleSided": true,
      "name": "Copper_1e687663-f91d-41a1-925e-c20dffc9dbf8",
      "pbrMetallicRoughness": {
        "baseColorFactor": [
          0.4793201831008268,
          0.17144110073282265,
          0.03310476657088508,
          1.0
        ],
        "metallicRoughnessTexture": {
          "index": 0
        }
      }
    },
    {
      "doubleSided": true,
      "emissiveFactor": [
        0.9646862478944651,
        0.20863687014525575,
        0.006995410187265395
      ],
      "name": "Crystal_7e73f3c6-6782-470c-9468-121de00b7864",
      "normalTexture": {
        "index": 1
      },
      "pbrMetallicRoughness": {
        "baseColorFactor": [
          0.9646862478944651,
          0.20863687014525575,
          0.006995410187265395,
          1.0
        ],
        "metallicFactor": 0.0,
        "roughnessFactor": 0.0
      }
    },
    {
      "doubleSided": true,
      "emissiveFactor": [
        0.9646862478944651,
        0.20863687014525575,
        0.006995410187265395
      ],
      "name": "Glow_67bdffdc-da5d-4ece-98f0-79e3a452d8e7",
      "pbrMetallicRoughness": {
        "baseColorFactor": [
          0.9646862478944651,
          0.20863687014525575,
          0.006995410187265395,
          1.0
        ],
        "metallicFactor": 0.0
      }
    },
    {
      "doubleSided": true,
      "name": "Leather_Wrap_220a1780-23fa-4de2-9c3f-64bea45767fe",
      "pbrMetallicRoughness": {
        "baseColorFactor": [
          0.1,
          0.1,
          0.1,
          1.0
        ],
        "baseColorTexture": {
          "extensions": {
            "KHR_texture_transform": {
              "rotation": 1.3188858551148925
            }
          },
          "index": 2
        },
        "metallicFactor": 0.0
      }
    },
    {
      "doubleSided": true,
      "name": "Metal_22cd07fc-ea5b-4e78-bb6f-f4fd4b5882e5",
      "normalTexture": {
        "index": 4,
        "scale": 0.5
      },
      "pbrMetallicRoughness": {
        "baseColorTexture": {
          "index": 3
        },
        "roughnessFactor": 0.0
      }
    },
    {
      "doubleSided": true,
      "name": "Rubber_18cd300e-a1e8-43ba-8df2-9347ffdff511",
      "normalTexture": {
        "extensions": {
          "KHR_texture_transform": {
            "scale": [
              4.000000000000001,
              2.0000000000000027
            ]
          }
        },
        "index": 5
      },
      "pbrMetallicRoughness": {
        "baseColorFactor": [
          0.03709710925778361,
          0.03709710925778361,
          0.03709710925778361,
          1.0
        ],
        "roughnessFactor": 0.5
      }
    }
  ],
  "meshes": [
    {
      "name": "Object_0",
      "primitives": [
        {
          "attributes": {
            "NORMAL": 1,
            "POSITION": 0,
            "TEXCOORD_0": 2
          },
          "indices": 3,
          "material": 0,
          "mode": 4
        }
      ]
    },
    {
      "name": "Object_1",
      "primitives": [
        {
          "attributes": {
            "NORMAL": 5,
            "POSITION": 4,
            "TEXCOORD_0": 6
          },
          "indices": 7,
          "material": 1,
          "mode": 4
        }
      ]
    },
    {
      "name": "Object_2",
      "primitives": [
        {
          "attributes": {
            "NORMAL": 9,
            "POSITION": 8,
            "TANGENT": 10,
            "TEXCOORD_0": 11
          },
          "indices": 12,
          "material": 2,
          "mode": 4
        }
      ]
    },
    {
      "name": "Object_3",
      "primitives": [
        {
          "attributes": {
            "NORMAL": 14,
            "POSITION": 13,
            "TEXCOORD_0": 15
          },
          "indices": 16,
          "material": 3,
          "mode": 4
        }
      ]
    },
    {
      "name": "Object_4",
      "primitives": [
        {
          "attributes": {
            "NORMAL": 18,
            "POSITION": 17,
            "TEXCOORD_0": 19
          },
          "indices": 20,
          "material": 4,
          "mode": 4
        }
      ]
    },
    {
      "name": "Object_5",
      "primitives": [
        {
          "attributes": {
            "NORMAL": 22,
            "POSITION": 21,
            "TANGENT": 23,
            "TEXCOORD_0": 24
          },
          "indices": 25,
          "material": 6,
          "mode": 4
        }
      ]
    },
    {
      "name": "Object_6",
      "primitives": [
        {
          "attributes": {
            "NORMAL": 27,
            "POSITION": 26,
            "TANGENT": 28,
            "TEXCOORD_0": 29
          },
          "indices": 30,
          "material": 5,
          "mode": 4
        }
      ]
    }
  ],
  "nodes": [
    {
      "children": [
        1
      ],
      "matrix": [
        0.0010471001733094454,
        0.0,
        0.0,
        0.0,
        0.0,
        2.325029442994276e-19,
        -0.0010471001733094454,
        0.0,
        0.0,
        0.0010471001733094454,
        2.325029442994276e-19,
        0.0,
        0.0,
        0.0,
        0.0,
        1.0
      ],
      "name": "Sketchfab_model"
    },
    {
      "children": [
        2,
        3,
        4,
        5,
        6,
        7,
        8
      ],
      "name": "Project Name.obj.cleaner.materialmerger.gles"
    },
    {
      "mesh": 0,
      "name": "Object_2"
    },
    {
      "mesh": 1,
      "name": "Object_3"
    },
    {
      "mesh": 2,
      "name": "Object_4"
    },
    {
      "mesh": 3,
      "name": "Object_5"
    },
    {
      "mesh": 4,
      "name": "Object_6"
    },
    {
      "mesh": 5,
      "name": "Object_7"
    },
    {
      "mesh": 6,
      "name": "Object_8"
    }
  ],
  "samplers": [
    {
      "magFilter": 9729,
      "minFilter": 9987,
      "wrapS": 10497,
      "wrapT": 10497
    }
  ],
  "scene": 0,
  "scenes": [
    {
      "name": "Sketchfab_Scene",
      "nodes": [
        0
      ]
    }
  ],
  "textures": [
    {
      "sampler": 0,
      "source": 0
    },
    {
      "sampler": 0,
      "source": 1
    },
    {
      "sampler": 0,
      "source": 2
    },
    {
      "sampler": 0,
      "source": 3
    },
    {
      "sampler": 0,
      "source": 4
    },
    {
      "sampler": 0,
      "source": 5
    }
  ]
}
